<svg width="692" height="182" viewBox="0 0 692 182" fill="none" xmlns="http://www.w3.org/2000/svg">
<rect x="230.5" y="120.9" width="231.4" height="61.1" fill="white"/>
<rect x="230.5" y="120.9" width="231.4" height="61.1" fill="white"/>
<rect x="230.5" y="120.9" width="231.4" height="61.1" fill="white"/>
<rect x="461.9" y="120.9" width="230.1" height="61.1" fill="white"/>
<rect x="461.9" y="120.9" width="230.1" height="61.1" fill="white"/>
<rect x="461.9" y="120.9" width="230.1" height="61.1" fill="white"/>
<rect x="230.5" y="74.1001" width="231.4" height="46.8" fill="white"/>
<rect x="230.5" y="74.1001" width="231.4" height="46.8" fill="white"/>
<rect x="230.5" y="74.1001" width="231.4" height="46.8" fill="white"/>
<rect x="461.9" width="230.1" height="59.8" fill="white"/>
<rect x="461.9" width="230.1" height="59.8" fill="white"/>
<rect x="461.9" width="230.1" height="59.8" fill="white"/>
<rect x="461.9" y="59.7998" width="230.1" height="61.1" fill="white"/>
<rect x="461.9" y="59.7998" width="230.1" height="61.1" fill="white"/>
<rect x="461.9" y="59.7998" width="230.1" height="61.1" fill="white"/>
<rect x="0.400024" y="135.2" width="230.1" height="46.8" fill="white"/>
<rect x="0.400024" y="135.2" width="230.1" height="46.8" fill="white"/>
<rect x="0.400024" y="135.2" width="230.1" height="46.8" fill="white"/>
</svg>
