<svg width="51" height="58" viewBox="0 0 51 58" fill="none" xmlns="http://www.w3.org/2000/svg">
<rect width="51" height="57.4172" rx="5" fill="#C4C4C4"/>
<circle cx="8.27483" cy="8.95037" r="4.22185" fill="#F7E05F"/>
<line x1="18.9139" y1="8.80798" x2="29.0464" y2="8.80798" stroke="white" stroke-width="4"/>
<line x1="35.1259" y1="8.80798" x2="45.2583" y2="8.80798" stroke="white" stroke-width="4"/>
<rect x="4.05298" y="17.2252" width="41.2053" height="35.1258" fill="white"/>
<path d="M35.6667 36.3333H14.3333C13.6 36.3333 13 36.9333 13 37.6667V45.6667C13 46.4 13.6 47 14.3333 47H35.6667C36.4 47 37 46.4 37 45.6667V37.6667C37 36.9333 36.4 36.3333 35.6667 36.3333ZM18.3333 44.3333C16.8667 44.3333 15.6667 43.1333 15.6667 41.6667C15.6667 40.2 16.8667 39 18.3333 39C19.8 39 21 40.2 21 41.6667C21 43.1333 19.8 44.3333 18.3333 44.3333ZM35.6667 23H14.3333C13.6 23 13 23.6 13 24.3333V32.3333C13 33.0667 13.6 33.6667 14.3333 33.6667H35.6667C36.4 33.6667 37 33.0667 37 32.3333V24.3333C37 23.6 36.4 23 35.6667 23ZM18.3333 31C16.8667 31 15.6667 29.8 15.6667 28.3333C15.6667 26.8667 16.8667 25.6667 18.3333 25.6667C19.8 25.6667 21 26.8667 21 28.3333C21 29.8 19.8 31 18.3333 31Z" fill="#1A27C9"/>
</svg>
