<svg width="51" height="58" viewBox="0 0 51 58" fill="none" xmlns="http://www.w3.org/2000/svg">
<rect width="51" height="57.4172" rx="5" fill="#C4C4C4"/>
<circle cx="8.27483" cy="8.95037" r="4.22185" fill="#F7E05F"/>
<line x1="18.9139" y1="8.80798" x2="29.0464" y2="8.80798" stroke="white" stroke-width="4"/>
<line x1="35.1259" y1="8.80798" x2="45.2583" y2="8.80798" stroke="white" stroke-width="4"/>
<rect x="4.05298" y="17.2252" width="41.2053" height="35.1258" fill="white"/>
<path d="M13 41.1111V43.5556H20.3333V41.1111H13ZM13 26.4444V28.8889H25.2222V26.4444H13ZM25.2222 46V43.5556H35V41.1111H25.2222V38.6667H22.7778V46H25.2222ZM17.8889 31.3333V33.7778H13V36.2222H17.8889V38.6667H20.3333V31.3333H17.8889ZM35 36.2222V33.7778H22.7778V36.2222H35ZM27.6667 31.3333H30.1111V28.8889H35V26.4444H30.1111V24H27.6667V31.3333Z" fill="#1A27C9"/>
</svg>
