<svg width="3911" height="1759" viewBox="0 0 3911 1759" fill="none" xmlns="http://www.w3.org/2000/svg">
<rect width="3911" height="1759" fill="#17161A"/>
<rect x="685" y="822" width="1294" height="937" fill="white"/>
<rect x="1016" y="1290.5" width="632" height="28.2229" fill="#17161A" fill-opacity="0.5"/>
<rect x="1016" y="1548.74" width="549.512" height="14.1114" fill="#C4C4C4" fill-opacity="0.7"/>
<rect x="1016" y="1603.77" width="632" height="14.1114" fill="#C4C4C4" fill-opacity="0.7"/>
<rect x="1016" y="1658.81" width="338.441" height="14.1114" fill="#C4C4C4" fill-opacity="0.7"/>
<path d="M792.5 331C924.5 331 1033 358 1118 412C1203 465 1246.5 544 1248.5 649V667H938V661C938 631 927 606 905 586C883 566 849.5 556 804.5 556C760.5 556 726.5 562.5 702.5 575.5C679.5 588.5 668 604.5 668 623.5C668 650.5 684 670.5 716 683.5C748 696.5 799.5 710 870.5 724C953.5 741 1021.5 759 1074.5 778C1128.5 796 1175.5 826 1215.5 868C1255.5 910 1276 967 1277 1039C1277 1161 1235.5 1251.5 1152.5 1310.5C1070.5 1369.5 960.5 1399 822.5 1399C661.5 1399 536 1372 446 1318C357 1264 312.5 1168.5 312.5 1031.5H626C626 1083.5 639.5 1118.5 666.5 1136.5C693.5 1153.5 735.5 1162 792.5 1162C834.5 1162 869 1157.5 896 1148.5C924 1139.5 938 1121 938 1093C938 1068 922.5 1049.5 891.5 1037.5C861.5 1024.5 812 1011 743 997C659 979 589.5 960.5 534.5 941.5C479.5 921.5 431.5 889 390.5 844C349.5 799 329 738 329 661C329 548 372.5 465 459.5 412C547.5 358 658.5 331 792.5 331ZM1875.02 331C2007.02 331 2115.52 358 2200.52 412C2285.52 465 2329.02 544 2331.02 649V667H2020.52V661C2020.52 631 2009.52 606 1987.52 586C1965.52 566 1932.02 556 1887.02 556C1843.02 556 1809.02 562.5 1785.02 575.5C1762.02 588.5 1750.52 604.5 1750.52 623.5C1750.52 650.5 1766.52 670.5 1798.52 683.5C1830.52 696.5 1882.02 710 1953.02 724C2036.02 741 2104.02 759 2157.02 778C2211.02 796 2258.02 826 2298.02 868C2338.02 910 2358.52 967 2359.52 1039C2359.52 1161 2318.02 1251.5 2235.02 1310.5C2153.02 1369.5 2043.02 1399 1905.02 1399C1744.02 1399 1618.52 1372 1528.52 1318C1439.52 1264 1395.02 1168.5 1395.02 1031.5H1708.52C1708.52 1083.5 1722.02 1118.5 1749.02 1136.5C1776.02 1153.5 1818.02 1162 1875.02 1162C1917.02 1162 1951.52 1157.5 1978.52 1148.5C2006.52 1139.5 2020.52 1121 2020.52 1093C2020.52 1068 2005.02 1049.5 1974.02 1037.5C1944.02 1024.5 1894.52 1011 1825.52 997C1741.52 979 1672.02 960.5 1617.02 941.5C1562.02 921.5 1514.02 889 1473.02 844C1432.02 799 1411.52 738 1411.52 661C1411.52 548 1455.02 465 1542.02 412C1630.02 358 1741.02 331 1875.02 331ZM3043.04 331C3142.04 331 3231.04 346 3310.04 376C3389.04 406 3451.54 450.5 3497.54 509.5C3544.54 567.5 3568.04 638.5 3568.04 722.5H3251.54C3251.54 679.5 3232.54 645 3194.54 619C3156.54 592 3110.54 578.5 3056.54 578.5C2978.54 578.5 2919.54 599.5 2879.54 641.5C2839.54 682.5 2819.54 741 2819.54 817V913C2819.54 989 2839.54 1048 2879.54 1090C2919.54 1131 2978.54 1151.5 3056.54 1151.5C3110.54 1151.5 3156.54 1139 3194.54 1114C3232.54 1088 3251.54 1055 3251.54 1015H3017.54V805H3568.04V1381H3397.04L3364.04 1279C3270.04 1359 3147.04 1399 2995.04 1399C2824.04 1399 2695.54 1354.5 2609.54 1265.5C2523.54 1175.5 2480.54 1042 2480.54 865C2480.54 690 2529.04 557.5 2626.04 467.5C2724.04 376.5 2863.04 331 3043.04 331Z" fill="#F7E05F"/>
<g filter="url(#filter0_d)">
<rect x="2931" y="180" width="767" height="455" fill="white"/>
</g>
<rect x="3010" y="256" width="506.038" height="10" fill="#C4C4C4" fill-opacity="0.7"/>
<rect x="3010" y="295" width="582" height="10" fill="#C4C4C4" fill-opacity="0.7"/>
<rect x="3010" y="334" width="311.666" height="10" fill="#C4C4C4" fill-opacity="0.7"/>
<rect x="3010" y="380" width="506.038" height="10" fill="#C4C4C4" fill-opacity="0.7"/>
<rect x="3010" y="419" width="582" height="10" fill="#C4C4C4" fill-opacity="0.7"/>
<rect x="3010" y="458" width="311.666" height="10" fill="#C4C4C4" fill-opacity="0.7"/>
<g filter="url(#filter1_d)">
<rect x="208" y="635" width="691" height="379" fill="white"/>
</g>
<rect x="271" y="709" width="365" height="20" fill="#17161A" fill-opacity="0.5"/>
<rect x="271" y="812" width="453" height="10" fill="#C4C4C4" fill-opacity="0.7"/>
<rect x="271" y="851" width="521" height="10" fill="#C4C4C4" fill-opacity="0.7"/>
<rect x="271" y="890" width="279" height="10" fill="#C4C4C4" fill-opacity="0.7"/>
<defs>
<filter id="filter0_d" x="2907" y="155" width="827" height="515" filterUnits="userSpaceOnUse" color-interpolation-filters="sRGB">
<feFlood flood-opacity="0" result="BackgroundImageFix"/>
<feColorMatrix in="SourceAlpha" type="matrix" values="0 0 0 0 0 0 0 0 0 0 0 0 0 0 0 0 0 0 127 0"/>
<feMorphology radius="12" operator="dilate" in="SourceAlpha" result="effect1_dropShadow"/>
<feOffset dx="6" dy="5"/>
<feGaussianBlur stdDeviation="9"/>
<feColorMatrix type="matrix" values="0 0 0 0 0 0 0 0 0 0 0 0 0 0 0 0 0 0 0.25 0"/>
<feBlend mode="normal" in2="BackgroundImageFix" result="effect1_dropShadow"/>
<feBlend mode="normal" in="SourceGraphic" in2="effect1_dropShadow" result="shape"/>
</filter>
<filter id="filter1_d" x="184" y="610" width="751" height="439" filterUnits="userSpaceOnUse" color-interpolation-filters="sRGB">
<feFlood flood-opacity="0" result="BackgroundImageFix"/>
<feColorMatrix in="SourceAlpha" type="matrix" values="0 0 0 0 0 0 0 0 0 0 0 0 0 0 0 0 0 0 127 0"/>
<feMorphology radius="12" operator="dilate" in="SourceAlpha" result="effect1_dropShadow"/>
<feOffset dx="6" dy="5"/>
<feGaussianBlur stdDeviation="9"/>
<feColorMatrix type="matrix" values="0 0 0 0 0 0 0 0 0 0 0 0 0 0 0 0 0 0 0.25 0"/>
<feBlend mode="normal" in2="BackgroundImageFix" result="effect1_dropShadow"/>
<feBlend mode="normal" in="SourceGraphic" in2="effect1_dropShadow" result="shape"/>
</filter>
</defs>
</svg>
